<svg width="17" height="17" viewBox="0 0 17 17" fill="none" xmlns="http://www.w3.org/2000/svg">
<path d="M8.70855 12.7297C7.58691 12.7297 6.5112 12.2841 5.71808 11.491C4.92496 10.6979 4.47938 9.62219 4.47938 8.50054C4.47938 7.3789 4.92496 6.30319 5.71808 5.51007C6.5112 4.71695 7.58691 4.27138 8.70855 4.27138C9.8302 4.27138 10.9059 4.71695 11.699 5.51007C12.4921 6.30319 12.9377 7.3789 12.9377 8.50054C12.9377 9.62219 12.4921 10.6979 11.699 11.491C10.9059 12.2841 9.8302 12.7297 8.70855 12.7297ZM8.00369 0.74707H9.41341V2.86165H8.00369V0.74707ZM8.00369 14.1394H9.41341V16.254H8.00369V14.1394ZM2.7278 3.51647L3.72448 2.5198L5.21949 4.01481L4.22281 5.01148L2.7278 3.51717V3.51647ZM12.1976 12.9863L13.1943 11.9896L14.6893 13.4846L13.6926 14.4813L12.1976 12.9863ZM13.6926 2.51909L14.6893 3.51647L13.1943 5.01148L12.1976 4.01481L13.6926 2.5198V2.51909ZM4.22281 11.9896L5.21949 12.9863L3.72448 14.4813L2.7278 13.4846L4.22281 11.9896V11.9896ZM16.462 7.79568V9.2054H14.3474V7.79568H16.462ZM3.06966 7.79568V9.2054H0.955078V7.79568H3.06966Z" fill="#D59924"/>
</svg>
