<svg width="24" height="28" viewBox="0 0 24 28" fill="none" xmlns="http://www.w3.org/2000/svg">
<path d="M7.40633 9.30504V21.4173L8.81352 21.4343H16.5957V15.3419L12.9813 11.7266H10.305L7.40633 9.30504ZM7.40633 0V5.20185H14.332C14.7606 5.2014 15.1851 5.28563 15.5812 5.4497C15.9772 5.61377 16.3369 5.85445 16.6396 6.15792L22.1527 11.671C22.46 11.9741 22.7039 12.3354 22.8702 12.7337C23.0364 13.1321 23.1218 13.5595 23.1213 13.9912V24.698C23.1213 25.5636 22.7775 26.3938 22.1654 27.0058C21.5533 27.6179 20.7232 27.9617 19.8576 27.9617H7.42606V27.9537C6.98477 27.9543 6.54798 27.8649 6.14241 27.691C5.73684 27.517 5.37101 27.2622 5.06729 26.942L1.9417 23.6541C1.6065 23.3485 1.33881 22.9764 1.1558 22.5614C0.972784 22.1464 0.878472 21.6977 0.878908 21.2442V0H7.40633Z" fill="#001C77"/>
</svg>
