<svg width="14" height="14" viewBox="0 0 14 14" fill="none" xmlns="http://www.w3.org/2000/svg">
<path d="M5.66665 3.66683C5.66651 4.59392 5.94252 5.50005 6.45946 6.26964C6.97641 7.03923 7.71087 7.6374 8.56916 7.98787C9.42746 8.33835 10.3707 8.42523 11.2786 8.23744C12.1864 8.04965 13.0178 7.59571 13.6666 6.9335V7.00016C13.6666 10.6822 10.682 13.6668 6.99998 13.6668C3.31798 13.6668 0.333313 10.6822 0.333313 7.00016C0.333313 3.31816 3.31798 0.333496 6.99998 0.333496H7.06665C6.62267 0.76758 6.27007 1.28614 6.02963 1.85862C5.78919 2.43109 5.66577 3.04591 5.66665 3.66683V3.66683ZM1.66665 7.00016C1.66616 8.19015 2.06366 9.34611 2.79591 10.2841C3.52815 11.2222 4.55307 11.8883 5.70759 12.1767C6.86211 12.4651 8.0799 12.359 9.16721 11.8755C10.2545 11.3919 11.1489 10.5586 11.708 9.50816C10.7129 9.74259 9.6745 9.71889 8.69119 9.43931C7.70789 9.15973 6.81232 8.63355 6.08945 7.91069C5.36659 7.18783 4.84041 6.29226 4.56083 5.30895C4.28126 4.32564 4.25756 3.2872 4.49198 2.29216C3.63837 2.74692 2.9245 3.42527 2.42682 4.25459C1.92913 5.08391 1.66636 6.03297 1.66665 7.00016V7.00016Z" fill="#506F88"/>
</svg>
