<svg width="20" height="20" viewBox="0 0 20 20" fill="none" xmlns="http://www.w3.org/2000/svg">
<path d="M0.212763 12.0598C-0.0748272 10.7015 -0.0748272 9.29804 0.212763 7.93976C1.32276 8.06976 2.29276 7.70276 2.60876 6.93876C2.92576 6.17376 2.50076 5.22876 1.62276 4.53576C2.3798 3.37209 3.37209 2.3798 4.53576 1.62276C5.22776 2.49976 6.17376 2.92576 6.93876 2.60876C7.70376 2.29176 8.07076 1.32276 7.93976 0.212763C9.29804 -0.0748272 10.7015 -0.0748272 12.0598 0.212763C11.9298 1.32276 12.2968 2.29276 13.0608 2.60876C13.8258 2.92576 14.7708 2.50076 15.4638 1.62276C16.6274 2.3798 17.6197 3.37209 18.3768 4.53576C17.4998 5.22776 17.0738 6.17376 17.3908 6.93876C17.7078 7.70376 18.6768 8.07076 19.7868 7.93976C20.0744 9.29804 20.0744 10.7015 19.7868 12.0598C18.6768 11.9298 17.7068 12.2968 17.3908 13.0608C17.0738 13.8258 17.4988 14.7708 18.3768 15.4638C17.6197 16.6274 16.6274 17.6197 15.4638 18.3768C14.7718 17.4998 13.8258 17.0738 13.0608 17.3908C12.2958 17.7078 11.9288 18.6768 12.0598 19.7868C10.7015 20.0744 9.29804 20.0744 7.93976 19.7868C8.06976 18.6768 7.70276 17.7068 6.93876 17.3908C6.17376 17.0738 5.22876 17.4988 4.53576 18.3768C3.37209 17.6197 2.3798 16.6274 1.62276 15.4638C2.49976 14.7718 2.92576 13.8258 2.60876 13.0608C2.29176 12.2958 1.32276 11.9288 0.212763 12.0598ZM1.99976 10.2098C3.09976 10.5148 4.00676 11.2118 4.45676 12.2958C4.90576 13.3808 4.75676 14.5158 4.19476 15.5078C4.29076 15.6098 4.38976 15.7088 4.49176 15.8048C5.48476 15.2428 6.61876 15.0948 7.70376 15.5428C8.78776 15.9928 9.48476 16.8998 9.78976 17.9998C9.92976 18.0038 10.0698 18.0038 10.2098 17.9998C10.5148 16.8998 11.2118 15.9928 12.2958 15.5428C13.3808 15.0938 14.5158 15.2428 15.5078 15.8048C15.6098 15.7088 15.7088 15.6098 15.8048 15.5078C15.2428 14.5148 15.0948 13.3808 15.5428 12.2958C15.9928 11.2118 16.8998 10.5148 17.9998 10.2098C18.0038 10.0698 18.0038 9.92976 17.9998 9.78976C16.8998 9.48476 15.9928 8.78776 15.5428 7.70376C15.0938 6.61876 15.2428 5.48376 15.8048 4.49176C15.7084 4.39016 15.6094 4.29112 15.5078 4.19476C14.5148 4.75676 13.3808 4.90476 12.2958 4.45676C11.2118 4.00676 10.5148 3.09976 10.2098 1.99976C10.0698 1.99606 9.92974 1.99606 9.78976 1.99976C9.48476 3.09976 8.78776 4.00676 7.70376 4.45676C6.61876 4.90576 5.48376 4.75676 4.49176 4.19476C4.38976 4.29076 4.29076 4.38976 4.19476 4.49176C4.75676 5.48476 4.90476 6.61876 4.45676 7.70376C4.00676 8.78776 3.09976 9.48476 1.99976 9.78976C1.99576 9.92976 1.99576 10.0698 1.99976 10.2098ZM9.99976 12.9998C9.20411 12.9998 8.44105 12.6837 7.87844 12.1211C7.31583 11.5585 6.99976 10.7954 6.99976 9.99976C6.99976 9.20411 7.31583 8.44105 7.87844 7.87844C8.44105 7.31583 9.20411 6.99976 9.99976 6.99976C10.7954 6.99976 11.5585 7.31583 12.1211 7.87844C12.6837 8.44105 12.9998 9.20411 12.9998 9.99976C12.9998 10.7954 12.6837 11.5585 12.1211 12.1211C11.5585 12.6837 10.7954 12.9998 9.99976 12.9998ZM9.99976 10.9998C10.265 10.9998 10.5193 10.8944 10.7069 10.7069C10.8944 10.5193 10.9998 10.265 10.9998 9.99976C10.9998 9.73455 10.8944 9.48019 10.7069 9.29266C10.5193 9.10512 10.265 8.99976 9.99976 8.99976C9.73455 8.99976 9.48019 9.10512 9.29266 9.29266C9.10512 9.48019 8.99976 9.73455 8.99976 9.99976C8.99976 10.265 9.10512 10.5193 9.29266 10.7069C9.48019 10.8944 9.73455 10.9998 9.99976 10.9998Z" fill="#8F90A6"/>
</svg>
