<svg width="30" height="30" viewBox="0 0 30 30" fill="none" xmlns="http://www.w3.org/2000/svg">
<path d="M21.25 10H25L28.75 15.07V22.5H26.2062C26.0576 23.5429 25.5378 24.4971 24.7421 25.1874C23.9464 25.8778 22.9284 26.2578 21.875 26.2578C20.8216 26.2578 19.8036 25.8778 19.0079 25.1874C18.2122 24.4971 17.6924 23.5429 17.5438 22.5H11.2063C11.0577 23.5429 10.5378 24.4971 9.7421 25.1874C8.94643 25.8778 7.9284 26.2578 6.875 26.2578C5.8216 26.2578 4.80357 25.8778 4.0079 25.1874C3.21223 24.4971 2.69235 23.5429 2.54375 22.5H1.25V7.5C1.25 7.16848 1.3817 6.85054 1.61612 6.61612C1.85054 6.3817 2.16848 6.25 2.5 6.25H20C20.3315 6.25 20.6495 6.3817 20.8839 6.61612C21.1183 6.85054 21.25 7.16848 21.25 7.5V10ZM21.25 12.5V16.25H26.25V15.8938L23.74 12.5H21.25Z" fill="white"/>
</svg>
